<svg width="132" height="96" fill="none" xmlns="http://www.w3.org/2000/svg"><path d="M37.055 48.275c0 8.773-6.01 16.143-14.136 18.218V60.01c4.663-1.855 7.96-6.41 7.96-11.735 0-6.974-5.653-12.627-12.626-12.627-5.325 0-9.88 3.297-11.736 7.96H.035C2.11 35.482 9.48 29.473 18.253 29.473c10.384 0 18.802 8.418 18.802 18.802z" fill="#1FFF5A"/><path d="M11.862 47.451a7.214 7.214 0 017.214 7.214v11.862h-6.313V53.764H0V47.45h11.862z" fill="#1FFF5A"/><path fill-rule="evenodd" clip-rule="evenodd" d="M48.368 48.019c0-3.731 1.159-6.785 3.477-9.161 2.318-2.377 5.4-3.565 9.248-3.565 3.847 0 6.917 1.188 9.211 3.565 2.318 2.376 3.477 5.43 3.477 9.16 0 3.706-1.159 6.747-3.477 9.124-2.294 2.376-5.364 3.565-9.211 3.565-3.847 0-6.93-1.189-9.248-3.565-2.318-2.377-3.477-5.418-3.477-9.123zm5.068 0c0 2.53.666 4.574 1.997 6.133 1.332 1.533 3.218 2.3 5.66 2.3 2.466 0 4.365-.78 5.697-2.338 1.307-1.534 1.96-3.565 1.96-6.095s-.665-4.574-1.997-6.133c-1.307-1.559-3.194-2.338-5.66-2.338-2.417 0-4.303.792-5.66 2.376-1.331 1.56-1.997 3.59-1.997 6.095zm58.417-12.234l7.14 19.43 7.099-19.43h5.731l-9.861 24.594h-5.937l-9.944-24.594h5.772zM90.669 54.873l-6.044-19.088h-7.4V60.38h4.763v-19.02l6.088 19.02h5.187l6.087-19.02v19.02h4.764V35.785h-7.4l-6.045 19.088z" fill="#fff"/></svg>