<?xml version="1.0" encoding="UTF-8"?>
<svg width="180px" height="86px" viewBox="0 0 180 86" version="1.1" xmlns="http://www.w3.org/2000/svg" xmlns:xlink="http://www.w3.org/1999/xlink">
    <title>logo-main</title>
    <defs>
        <polygon id="path-1" points="0 0.801875 180 0.801875 180 60.475625 0 60.475625"></polygon>
        <polygon id="path-3" points="0 85.323875 180 85.323875 180 0.87575 0 0.87575"></polygon>
        <polygon id="path-5" points="0 85.323875 180 85.323875 180 0.87575 0 0.87575"></polygon>
        <polygon id="path-7" points="0 85.323875 180 85.323875 180 0.87575 0 0.87575"></polygon>
        <polygon id="path-9" points="0 85.323875 180 85.323875 180 0.87575 0 0.87575"></polygon>
        <polygon id="path-11" points="0 85.323875 180 85.323875 180 0.87575 0 0.87575"></polygon>
        <polygon id="path-13" points="0 85.323875 180 85.323875 180 0.87575 0 0.87575"></polygon>
        <polygon id="path-15" points="0 85.323875 180 85.323875 180 0.87575 0 0.87575"></polygon>
        <polygon id="path-17" points="0 85.323875 180 85.323875 180 0.87575 0 0.87575"></polygon>
        <polygon id="path-19" points="0 85.323875 180 85.323875 180 0.87575 0 0.87575"></polygon>
        <polygon id="path-21" points="0 85.323875 180 85.323875 180 0.87575 0 0.87575"></polygon>
        <polygon id="path-23" points="0 85.323875 180 85.323875 180 0.87575 0 0.87575"></polygon>
        <polygon id="path-25" points="0 85.323875 180 85.323875 180 0.87575 0 0.87575"></polygon>
        <polygon id="path-27" points="0 85.323875 180 85.323875 180 0.87575 0 0.87575"></polygon>
        <polygon id="path-29" points="0 85.323875 180 85.323875 180 0.87575 0 0.87575"></polygon>
        <polygon id="path-31" points="0 85.323875 180 85.323875 180 0.87575 0 0.87575"></polygon>
    </defs>
    <g id="Page-1" stroke="none" stroke-width="1" fill="none" fill-rule="evenodd">
        <g id="logo-main">
            <g id="Fill-1-Clipped" transform="translate(0.000000, 0.073875)">
                <mask id="mask-2" fill="white">
                    <use xlink:href="#path-1"></use>
                </mask>
                <g id="path-1"></g>
                <path d="M20.0390625,59.075 L20.0390625,1.07375 L23.1778125,1.07375 L23.1778125,24.348125 C23.7834375,23.860625 24.4603125,23.455625 25.1915625,23.15375 C26.1721875,22.745 27.2465625,22.52 28.3678125,22.52 C29.4909375,22.52 30.5653125,22.745 31.5478125,23.15375 C32.5678125,23.575625 33.4846875,24.198125 34.2534375,24.965 C35.0203125,25.731875 35.6390625,26.6525 36.0646875,27.670625 C36.4734375,28.653125 36.6984375,29.7275 36.6984375,30.846875 L36.6984375,59.075 L33.5615625,30.846875 C33.5615625,30.1475 33.4228125,29.478125 33.1678125,28.870625 C32.9053125,28.23875 32.5153125,27.665 32.0353125,27.183125 C31.5553125,26.699375 30.9815625,26.313125 30.3459375,26.0525 C29.7365625,25.795625 29.0690625,25.656875 28.3678125,25.656875 C27.6684375,25.656875 27.0009375,25.795625 26.3896875,26.0525 C25.7578125,26.313125 25.1840625,26.699375 24.7021875,27.183125 C23.7590625,28.12625 23.1778125,29.421875 23.1778125,30.846875 L23.1778125,59.555 L20.0390625,59.555 L20.0390625,59.075 Z M114.203437,59.075 L114.203437,1.07375 L117.340312,1.07375 L117.340312,24.348125 C117.947812,23.860625 118.628437,23.455625 119.354062,23.15375 C120.338437,22.745 121.412813,22.52 122.534062,22.52 C123.655312,22.52 124.729688,22.745 125.710313,23.15375 C126.730312,23.575625 127.649062,24.198125 128.415938,24.965 C129.184688,25.731875 129.805313,26.6525 130.230938,27.670625 C130.637813,28.653125 130.862813,29.7275 130.862813,30.846875 L130.862813,59.075 L127.725937,30.846875 C127.725937,30.1475 127.585313,29.478125 127.332188,28.870625 C127.069688,28.23875 126.679688,27.665 126.203437,27.183125 C125.719687,26.699375 125.144063,26.313125 124.510312,26.0525 C123.900937,25.795625 123.235313,25.656875 122.534062,25.656875 C121.832812,25.656875 121.163437,25.795625 120.554063,26.0525 C119.922187,26.313125 119.346562,26.699375 118.866562,27.183125 C117.925312,28.12625 117.340312,29.421875 117.340312,30.846875 L117.340312,59.555 L114.203437,59.555 L114.203437,59.075 Z M53.6015625,49.83875 L53.6015625,30.846875 C53.6015625,30.1475 53.4628125,29.478125 53.2059375,28.870625 C52.9434375,28.23875 52.5571875,27.665 52.0753125,27.183125 C51.5934375,26.699375 51.0215625,26.313125 50.3878125,26.0525 C49.7784375,25.795625 49.1109375,25.656875 48.4096875,25.656875 C47.7084375,25.656875 47.0390625,25.795625 46.4296875,26.0525 C45.7959375,26.313125 45.2240625,26.699375 44.7403125,27.183125 C43.8009375,28.12625 43.2159375,29.421875 43.2159375,30.846875 L43.2159375,52.146875 C43.2159375,52.848125 43.3565625,53.515625 43.6078125,54.125 C43.8721875,54.75875 44.2603125,55.3325 44.7403125,55.8125 C45.2240625,56.298125 45.7959375,56.6825 46.4296875,56.945 C47.0390625,57.2 47.7084375,57.33875 48.4096875,57.33875 C49.1109375,57.33875 49.7784375,57.2 50.3878125,56.945 C51.0215625,56.6825 51.5934375,56.29625 52.0753125,55.8125 C52.5571875,55.334375 52.9434375,54.760625 53.2059375,54.123125 C53.4628125,53.515625 53.6015625,52.848125 53.6015625,52.146875 L53.6015625,49.83875 Z M40.0790625,49.83875 L40.0790625,30.846875 C40.0790625,29.7275 40.3059375,28.65125 40.7109375,27.66875 C41.1365625,26.650625 41.7571875,25.731875 42.5259375,24.965 C43.2909375,24.198125 44.2115625,23.575625 45.2315625,23.15375 C46.2121875,22.745 47.2884375,22.52 48.4096875,22.52 C51.2465625,22.52 52.7746875,24.175625 53.6015625,25.8275 L53.6015625,9.1325 C53.6015625,8.43125 53.4628125,7.765625 53.2059375,7.154375 C52.9434375,6.5225 52.5571875,5.94875 52.0753125,5.465 C51.5953125,4.985 51.0215625,4.596875 50.3878125,4.334375 C49.7784375,4.079375 49.1109375,3.940625 48.4096875,3.940625 C47.7084375,3.940625 47.0390625,4.079375 46.4296875,4.334375 C45.7959375,4.595 45.2240625,4.983125 44.7403125,5.465 L44.7121875,5.49125 C41.9221875,7.859375 40.9246875,14.38625 40.0790625,19.86125 L40.0790625,9.1325 C40.0790625,8.009375 40.3059375,6.936875 40.7109375,5.954375 C41.1365625,4.934375 41.7571875,4.0175 42.5259375,3.250625 C43.2928125,2.478125 44.2115625,1.859375 45.2315625,1.435625 C46.2121875,1.02875 47.2884375,0.801875 48.4096875,0.801875 C49.5309375,0.801875 50.6053125,1.02875 51.5878125,1.435625 C52.6059375,1.859375 53.5246875,2.48 54.2934375,3.250625 C55.0603125,4.0175 55.6809375,4.934375 56.1028125,5.95625 C56.5115625,6.936875 56.7384375,8.009375 56.7384375,9.1325 L56.7384375,52.146875 C56.7384375,53.268125 56.5115625,54.3425 56.1028125,55.325 C55.6809375,56.345 55.0603125,57.26375 54.2934375,58.02875 C53.5246875,58.80125 52.6059375,59.418125 51.5878125,59.84375 C50.6053125,60.250625 49.5309375,60.475625 48.4096875,60.475625 C47.2884375,60.475625 46.2121875,60.250625 45.2315625,59.84375 C44.2115625,59.418125 43.2909375,58.80125 42.5259375,58.030625 C41.7571875,57.26375 41.1365625,56.346875 40.7109375,55.325 C40.3059375,54.344375 40.0790625,53.268125 40.0790625,52.146875 L40.0790625,49.83875 Z M147.765938,49.83875 L147.765938,30.846875 C147.765938,30.1475 147.625313,29.478125 147.374063,28.870625 C147.109688,28.23875 146.721563,27.665 146.239688,27.183125 C145.757812,26.699375 145.185938,26.313125 144.554063,26.0525 C143.942813,25.795625 143.273438,25.656875 142.574063,25.656875 C141.872813,25.656875 141.205313,25.795625 140.594063,26.0525 C139.960313,26.313125 139.386563,26.699375 138.908437,27.183125 C137.963438,28.12625 137.380313,29.421875 137.380313,30.846875 L137.380313,52.146875 C137.380313,52.848125 137.520938,53.515625 137.774063,54.125 C138.038437,54.75875 138.424688,55.3325 138.908437,55.8125 C139.386563,56.298125 139.960313,56.6825 140.595938,56.945 C141.205313,57.2 141.872813,57.33875 142.574063,57.33875 C143.273438,57.33875 143.942813,57.2 144.554063,56.945 C145.185938,56.6825 145.757812,56.29625 146.239688,55.8125 C146.719688,55.334375 147.109688,54.760625 147.374063,54.123125 C147.625313,53.515625 147.765938,52.848125 147.765938,52.146875 L147.765938,49.83875 Z M134.245312,49.83875 L134.245312,30.846875 C134.245312,29.7275 134.470312,28.65125 134.875313,27.66875 C135.302812,26.650625 135.921562,25.731875 136.690312,24.965 C137.457188,24.198125 138.375937,23.575625 139.395938,23.15375 C140.376563,22.745 141.450937,22.52 142.574062,22.52 C145.410937,22.52 146.940937,24.175625 147.765937,25.8275 L147.765937,9.1325 C147.765937,8.43125 147.625313,7.765625 147.374063,7.154375 C147.109687,6.5225 146.721563,5.94875 146.239688,5.465 C145.759687,4.985 145.185937,4.596875 144.554062,4.334375 C143.942813,4.079375 143.273437,3.940625 142.574062,3.940625 C141.872812,3.940625 141.205312,4.079375 140.595937,4.334375 C139.960312,4.595 139.386562,4.983125 138.908437,5.465 L138.876562,5.49125 C136.086562,7.859375 135.092812,14.38625 134.245312,19.86125 L134.245312,9.1325 C134.245312,8.009375 134.470312,6.936875 134.875313,5.954375 C135.302812,4.934375 135.921562,4.0175 136.690312,3.250625 C137.457188,2.478125 138.375937,1.859375 139.395938,1.435625 C140.376563,1.02875 141.450937,0.801875 142.574062,0.801875 C143.695312,0.801875 144.769687,1.02875 145.750313,1.435625 C146.768437,1.859375 147.689062,2.48 148.455938,3.250625 C149.226562,4.0175 149.843437,4.934375 150.270938,5.95625 C150.677812,6.936875 150.902812,8.009375 150.902812,9.1325 L150.902812,52.146875 C150.902812,53.268125 150.677812,54.3425 150.270938,55.325 C149.843437,56.345 149.226562,57.26375 148.455938,58.02875 C147.689062,58.80125 146.768437,59.418125 145.750313,59.84375 C144.769687,60.250625 143.697188,60.475625 142.574062,60.475625 C141.450937,60.475625 140.376563,60.250625 139.395938,59.84375 C138.375937,59.418125 137.457188,58.80125 136.690312,58.030625 C135.921562,57.26375 135.302812,56.346875 134.875313,55.325 C134.470312,54.344375 134.245312,53.268125 134.245312,52.146875 L134.245312,49.83875 Z M176.862188,49.83875 L176.862188,52.146875 C176.862188,52.848125 176.721563,53.515625 176.468438,54.123125 C176.204063,54.760625 175.815938,55.334375 175.335938,55.8125 C174.854062,56.29625 174.280313,56.6825 173.644688,56.945 C173.037188,57.2 172.369687,57.33875 171.668438,57.33875 C170.970938,57.33875 170.299688,57.2 169.688438,56.945 C169.056563,56.6825 168.482813,56.298125 168.002813,55.8125 C167.520938,55.3325 167.132813,54.75875 166.868437,54.125 C166.615313,53.515625 166.474688,52.848125 166.474688,52.146875 L166.474688,30.846875 C166.474688,29.421875 167.061563,28.12625 168.002813,27.183125 C168.482813,26.699375 169.056563,26.313125 169.688438,26.0525 C170.299688,25.795625 170.970938,25.656875 171.668438,25.656875 C172.369687,25.656875 173.037188,25.795625 173.644688,26.0525 C174.280313,26.313125 174.854062,26.699375 175.335938,27.183125 C175.815938,27.665 176.205938,28.23875 176.468438,28.870625 C176.721563,29.478125 176.862188,30.1475 176.862188,30.846875 L176.862188,49.83875 Z M163.339687,49.83875 L163.339687,52.146875 C163.339687,53.268125 163.562813,54.344375 163.971562,55.325 C164.395312,56.346875 165.017812,57.26375 165.784687,58.030625 C166.551562,58.80125 167.470312,59.418125 168.488438,59.84375 C169.472813,60.250625 170.545312,60.475625 171.668437,60.475625 C172.791562,60.475625 173.865937,60.250625 174.846563,59.84375 C175.864687,59.418125 176.783438,58.80125 177.552188,58.02875 C178.320937,57.26375 178.941563,56.345 179.365312,55.325 C179.772188,54.3425 180.000937,53.268125 180.000937,52.146875 L180.000937,9.1325 C180.000937,8.009375 179.772188,6.936875 179.365312,5.95625 C178.941563,4.934375 178.320937,4.0175 177.552188,3.250625 C176.783438,2.48 175.864687,1.859375 174.846563,1.435625 C173.865937,1.02875 172.791562,0.801875 171.668437,0.801875 C170.545312,0.801875 169.472813,1.02875 168.488438,1.435625 C167.470312,1.859375 166.551562,2.478125 165.784687,3.250625 C165.017812,4.0175 164.395312,4.934375 163.971562,5.954375 C163.562813,6.936875 163.339687,8.009375 163.339687,9.1325 L163.339687,19.86125 C164.187187,14.38625 165.179062,7.859375 167.972812,5.49125 L168.002812,5.465 C168.482812,4.983125 169.056562,4.595 169.688437,4.334375 C170.299687,4.079375 170.970937,3.940625 171.668437,3.940625 C172.369687,3.940625 173.037187,4.079375 173.644688,4.334375 C174.282187,4.596875 174.855937,4.985 175.335938,5.465 C175.815937,5.94875 176.205938,6.5225 176.468437,7.154375 C176.721563,7.765625 176.862187,8.43125 176.862187,9.1325 L176.862187,25.8275 C176.037187,24.175625 174.505313,22.52 171.668437,22.52 C170.545312,22.52 169.472813,22.745 168.488438,23.15375 C167.470312,23.575625 166.551562,24.198125 165.784687,24.965 C165.017812,25.731875 164.395312,26.650625 163.971562,27.66875 C163.562813,28.65125 163.339687,29.7275 163.339687,30.846875 L163.339687,49.83875 Z M60.1190625,59.075 L60.1190625,9.1325 C60.1190625,8.009375 60.3459375,6.936875 60.7528125,5.954375 C61.1765625,4.934375 61.7971875,4.0175 62.5640625,3.250625 C63.3328125,2.478125 64.2496875,1.859375 65.2715625,1.435625 C66.2521875,1.02875 67.3265625,0.801875 68.4478125,0.801875 C69.5709375,0.801875 70.6434375,1.02875 71.6259375,1.435625 C72.6459375,1.859375 73.5646875,2.48 74.3315625,3.250625 C74.5771875,3.490625 74.8096875,3.75875 75.0309375,4.041875 C75.0909375,4.120625 75.1509375,4.20125 75.2109375,4.281875 C75.2690625,4.20125 75.3271875,4.120625 75.3890625,4.041875 C75.6103125,3.75875 75.8428125,3.490625 76.0884375,3.250625 C76.8553125,2.478125 77.7740625,1.859375 78.7940625,1.435625 C79.7746875,1.02875 80.8490625,0.801875 81.9721875,0.801875 C83.0953125,0.801875 84.1678125,1.02875 85.1484375,1.435625 C86.1684375,1.859375 87.0871875,2.48 87.8540625,3.250625 C88.6228125,4.0175 89.2434375,4.934375 89.6671875,5.95625 C90.0759375,6.93875 90.3009375,8.01125 90.3009375,9.1325 L90.3009375,59.075 L87.1640625,9.1325 C87.1640625,8.43125 87.0253125,7.765625 86.7703125,7.154375 C86.5059375,6.520625 86.1196875,5.945 85.6378125,5.465 C85.1559375,4.985 84.5821875,4.596875 83.9503125,4.334375 C83.3390625,4.079375 82.6715625,3.940625 81.9721875,3.940625 C81.2728125,3.940625 80.6034375,4.079375 79.9940625,4.334375 C79.3603125,4.595 78.7865625,4.983125 78.3046875,5.465 C77.3653125,6.408125 76.7784375,7.7075 76.7784375,9.1325 L76.7765625,9.141875 L75.2109375,59.084375 L73.6434375,9.141875 L73.6415625,9.1325 C73.6415625,8.43125 73.5009375,7.765625 73.2459375,7.154375 C72.9834375,6.520625 72.5953125,5.945 72.1153125,5.465 L72.1134375,5.465 C71.6334375,4.985 71.0596875,4.596875 70.4259375,4.334375 C69.8184375,4.079375 69.1490625,3.940625 68.4478125,3.940625 C67.7465625,3.940625 67.0771875,4.079375 66.4715625,4.334375 C65.8359375,4.595 65.2621875,4.983125 64.7840625,5.465 C63.8409375,6.408125 63.2540625,7.7075 63.2540625,9.1325 L60.1190625,59.075 Z M96.8184375,30.846875 L96.8184375,52.146875 C96.8184375,52.848125 96.9571875,53.515625 97.2121875,54.123125 C97.4746875,54.760625 97.8665625,55.334375 98.3465625,55.8125 C98.8284375,56.29625 99.3984375,56.6825 100.032187,56.945 C100.643437,57.2 101.310937,57.33875 102.012187,57.33875 C102.713437,57.33875 103.382812,57.2 103.990312,56.945 C104.625937,56.6825 105.197812,56.298125 105.675937,55.8125 C106.159687,55.3325 106.547812,54.75875 106.810312,54.125 C107.065312,53.515625 107.205937,52.848125 107.205937,52.146875 L107.205937,30.846875 C107.205937,30.1475 107.065312,29.478125 106.810312,28.870625 C106.547812,28.236875 106.159687,27.663125 105.675937,27.183125 C105.197812,26.699375 104.625937,26.313125 103.990312,26.0525 C103.382812,25.795625 102.713437,25.656875 102.012187,25.656875 C101.310937,25.656875 100.643437,25.795625 100.032187,26.0525 C99.3984375,26.313125 98.8284375,26.699375 98.3465625,27.183125 C97.8646875,27.665 97.4746875,28.23875 97.2121875,28.870625 C96.9571875,29.478125 96.8184375,30.1475 96.8184375,30.846875 L96.8184375,30.846875 Z M96.8184375,12.21125 L96.8184375,25.8275 C97.6453125,24.175625 99.1734375,22.52 102.012187,22.52 C103.133437,22.52 104.205937,22.745 105.188437,23.15375 C106.210312,23.575625 107.129062,24.198125 107.895937,24.965 C108.664687,25.731875 109.283437,26.650625 109.707187,27.66875 C110.117812,28.65125 110.342812,29.7275 110.342812,30.846875 L110.342812,52.146875 C110.342812,53.268125 110.117812,54.344375 109.707187,55.325 C109.283437,56.346875 108.664687,57.26375 107.895937,58.030625 C107.129062,58.80125 106.210312,59.418125 105.188437,59.84375 C104.205937,60.250625 103.133437,60.475625 102.012187,60.475625 C100.890937,60.475625 99.8165625,60.250625 98.8340625,59.84375 C97.8140625,59.418125 96.8971875,58.80125 96.1303125,58.02875 C95.3596875,57.26375 94.7390625,56.345 94.3171875,55.325 C93.9065625,54.3425 93.6796875,53.268125 93.6796875,52.146875 L93.6796875,12.21125 C93.6796875,9.2825 94.6415625,6.40625 96.1678125,4.28 C97.6790625,2.178125 99.7490625,0.801875 102.012187,0.801875 L103.577812,0.801875 L102.282187,1.683125 C100.742812,2.7275 99.2709375,4.26875 98.2471875,6.246875 C97.3734375,7.9325 96.8184375,9.933125 96.8184375,12.21125 L96.8184375,12.21125 Z M156.938438,33.839375 L156.938438,49.06625 C156.938438,51.340625 157.489688,53.343125 158.365313,55.030625 C159.390938,57.005 160.860938,58.55375 162.400313,59.59625 L163.697812,60.475625 L162.130313,60.475625 C159.870937,60.475625 157.799063,59.103125 156.287813,56.9975 C154.759688,54.875 153.799688,51.996875 153.799688,49.06625 L153.799688,2.054375 L156.938438,2.054375 L156.938438,33.839375 Z M6.6796875,32.200625 C5.9109375,32.165 5.0334375,31.956875 4.1803125,31.58 C3.4059375,31.23875 2.6465625,30.755 1.9959375,30.134375 C1.3865625,29.553125 0.8634375,28.85 0.5090625,28.02875 C0.1865625,27.29 -0.0009375,26.4575 -0.0009375,25.535 L-0.0009375,9.1325 C-0.0009375,8.009375 0.2259375,6.936875 0.6328125,5.95625 C1.0584375,4.934375 1.6790625,4.0175 2.4459375,3.250625 C3.2128125,2.48 4.1315625,1.859375 5.1515625,1.435625 C6.1340625,1.02875 7.2065625,0.801875 8.3296875,0.801875 C9.4528125,0.801875 10.5271875,1.02875 11.5059375,1.435625 C12.5259375,1.859375 13.4446875,2.478125 14.2134375,3.250625 C14.9821875,4.0175 15.6009375,4.934375 16.0246875,5.954375 C16.4334375,6.936875 16.6603125,8.009375 16.6603125,9.1325 L16.6603125,20.680625 C15.8709375,15.584375 14.6765625,7.93625 12.0103125,5.478125 L11.9953125,5.465 C11.5134375,4.983125 10.9415625,4.595 10.3096875,4.334375 C9.6984375,4.079375 9.0328125,3.940625 8.3296875,3.940625 C7.6284375,3.940625 6.9609375,4.079375 6.3515625,4.334375 C5.7140625,4.596875 5.1440625,4.985 4.6640625,5.465 C4.1821875,5.94875 3.7921875,6.5225 3.5315625,7.154375 C3.2765625,7.765625 3.1340625,8.43125 3.1340625,9.1325 L3.1340625,25.535 C3.1340625,26.005625 3.2315625,26.42375 3.3928125,26.793125 C3.5709375,27.209375 3.8390625,27.569375 4.1540625,27.8675 C4.5515625,28.251875 5.0146875,28.540625 5.4778125,28.74125 C5.9859375,28.95875 6.4903125,29.069375 6.9121875,29.069375 L7.3921875,29.069375 L7.3921875,29.07875 L10.8028125,29.07875 L10.8028125,29.069375 L11.2865625,29.069375 C12.0740625,29.069375 12.8390625,29.25125 13.5346875,29.6075 C14.2115625,29.954375 14.8171875,30.460625 15.3140625,31.128125 C15.7415625,31.70375 16.0865625,32.3975 16.3209375,33.2075 C16.5403125,33.959375 16.6603125,34.806875 16.6603125,35.744375 L16.6603125,52.146875 C16.6603125,53.268125 16.4334375,54.3425 16.0246875,55.325 C15.6009375,56.345 14.9821875,57.26375 14.2115625,58.02875 C13.4428125,58.80125 12.5259375,59.418125 11.5040625,59.841875 C10.5253125,60.250625 9.4528125,60.475625 8.3296875,60.475625 C7.2065625,60.475625 6.1340625,60.250625 5.1515625,59.84375 C4.1315625,59.418125 3.2128125,58.80125 2.4440625,58.02875 C1.6790625,57.26375 1.0584375,56.346875 0.6328125,55.325 C0.2259375,54.344375 -0.0009375,53.268125 -0.0009375,52.146875 L-0.0009375,38.82125 C0.8653125,44.425625 1.8440625,53.1575 4.6509375,55.806875 L4.6640625,55.8125 C5.1440625,56.29625 5.7159375,56.6825 6.3496875,56.945 C6.9609375,57.2 7.6284375,57.33875 8.3296875,57.33875 C9.0309375,57.33875 9.6984375,57.2 10.3078125,56.945 C10.9434375,56.6825 11.5153125,56.29625 11.9934375,55.8125 C12.4771875,55.330625 12.8634375,54.756875 13.1278125,54.123125 C13.3828125,53.515625 13.5215625,52.848125 13.5215625,52.146875 L13.5215625,35.744375 C13.5215625,35.13125 13.4540625,34.600625 13.3321875,34.14875 C13.2084375,33.681875 13.0265625,33.30125 12.8034375,33.00125 C12.6084375,32.740625 12.3759375,32.54375 12.1171875,32.40875 C11.8621875,32.275625 11.5790625,32.208125 11.2865625,32.208125 L10.8028125,32.208125 L10.8028125,32.2025 L6.6796875,32.200625 Z" id="Fill-1" fill="#653B2B" fill-rule="nonzero" mask="url(#mask-2)"></path>
            </g>
            <path d="M25.7685,81.9858125 L25.7685,74.8176875 L24.675375,74.8176875 L24.675375,74.2026875 L25.7685,74.2026875 L25.7685,73.9495625 C25.7685,72.9914375 25.9635,72.2451875 26.3535,71.7126875 C26.7435,71.1745625 27.27975,70.9101875 27.96975,70.9101875 C28.267875,70.9101875 28.5585,70.9533125 28.837875,71.0433125 C29.11725,71.1351875 29.347875,71.2514375 29.526,71.4014375 L29.254125,71.9433125 C29.11725,71.8326875 28.942875,71.7445625 28.7385,71.6733125 C28.536,71.6039375 28.324125,71.5683125 28.102875,71.5683125 C27.59475,71.5683125 27.202875,71.7708125 26.929125,72.1758125 C26.6535,72.5789375 26.516625,73.1639375 26.516625,73.9326875 L26.516625,74.2026875 L28.732875,74.2026875 L28.732875,74.8176875 L26.516625,74.8176875 L26.516625,81.9858125 L25.7685,81.9858125 Z" id="Fill-4" fill="#653B2B" fill-rule="nonzero"></path>
            <g id="Fill-6-Clipped">
                <mask id="mask-4" fill="white">
                    <use xlink:href="#path-3"></use>
                </mask>
                <g id="path-3"></g>
                <path d="M30.42375,81.986375 L31.171875,81.986375 L31.171875,74.20325 L30.42375,74.20325 L30.42375,81.986375 Z M30.42375,72.435125 L31.171875,72.435125 L31.171875,71.058875 L30.42375,71.058875 L30.42375,72.435125 Z" id="Fill-6" fill="#653B2B" fill-rule="nonzero" mask="url(#mask-4)"></path>
            </g>
            <g id="Fill-8-Clipped">
                <mask id="mask-6" fill="white">
                    <use xlink:href="#path-5"></use>
                </mask>
                <g id="path-3"></g>
                <path d="M39.883125,81.9858125 L39.135,81.9858125 L39.135,77.6470625 C39.135,76.6383125 38.9925,75.9033125 38.709375,75.4439375 C38.424375,74.9864375 37.9725,74.7576875 37.351875,74.7576875 C37.02375,74.7576875 36.6975,74.8176875 36.373125,74.9358125 C36.050625,75.0558125 35.746875,75.2264375 35.469375,75.4439375 C35.188125,75.6651875 34.944375,75.9239375 34.734375,76.2183125 C34.524375,76.5108125 34.370625,76.8258125 34.269375,77.1670625 L34.269375,81.9858125 L33.52125,81.9858125 L33.52125,74.2026875 L34.224375,74.2026875 L34.224375,76.0589375 C34.385625,75.7608125 34.5825,75.4889375 34.816875,75.2433125 C35.05125,74.9976875 35.315625,74.7895625 35.61,74.6133125 C35.9025,74.4408125 36.21375,74.3039375 36.54375,74.2101875 C36.875625,74.1145625 37.213125,74.0676875 37.56375,74.0676875 C38.41125,74.0676875 39.009375,74.3658125 39.36,74.9583125 C39.70875,75.5526875 39.883125,76.4020625 39.883125,77.5120625 L39.883125,81.9858125 Z" id="Fill-8" fill="#653B2B" fill-rule="nonzero" mask="url(#mask-6)"></path>
            </g>
            <g id="Fill-9-Clipped">
                <mask id="mask-8" fill="white">
                    <use xlink:href="#path-7"></use>
                </mask>
                <g id="path-3"></g>
                <path d="M48.5064375,77.7963125 C48.4764375,77.3350625 48.3733125,76.9169375 48.1989375,76.5381875 C48.0264375,76.1575625 47.7995625,75.8313125 47.5258125,75.5575625 C47.2520625,75.2819375 46.9333125,75.0681875 46.5770625,74.9125625 C46.2170625,74.7569375 45.8308125,74.6800625 45.4220625,74.6800625 C45.0133125,74.6800625 44.6308125,74.7569375 44.2708125,74.9125625 C43.9108125,75.0681875 43.5920625,75.2819375 43.3201875,75.5575625 C43.0445625,75.8313125 42.8251875,76.1613125 42.6620625,76.5456875 C42.4951875,76.9300625 42.3995625,77.3463125 42.3695625,77.7963125 L48.5064375,77.7963125 Z M45.4520625,82.1350625 C44.9045625,82.1350625 44.3964375,82.0300625 43.9258125,81.8144375 C43.4570625,81.5988125 43.0501875,81.3044375 42.7070625,80.9294375 C42.3620625,80.5581875 42.0920625,80.1250625 41.8989375,79.6356875 C41.7039375,79.1481875 41.6064375,78.6250625 41.6064375,78.0663125 C41.6064375,77.5169375 41.7039375,76.9994375 41.8989375,76.5138125 C42.0920625,76.0319375 42.3583125,75.6081875 42.6976875,75.2444375 C43.0370625,74.8788125 43.4401875,74.5919375 43.9033125,74.3838125 C44.3664375,74.1719375 44.8708125,74.0688125 45.4089375,74.0688125 C45.9564375,74.0688125 46.4645625,74.1738125 46.9333125,74.3894375 C47.4039375,74.6050625 47.8089375,74.8938125 48.1464375,75.2594375 C48.4876875,75.6231875 48.7501875,76.0450625 48.9414375,76.5288125 C49.1308125,77.0144375 49.2245625,77.5244375 49.2245625,78.0663125 L49.2245625,78.2519375 C49.2245625,78.3269375 49.2189375,78.3738125 49.2095625,78.3944375 L42.3826875,78.3944375 C42.4145625,78.8444375 42.5195625,79.2606875 42.6976875,79.6431875 C42.8776875,80.0275625 43.1045625,80.3594375 43.3801875,80.6406875 C43.6539375,80.9181875 43.9726875,81.1375625 44.3289375,81.2969375 C44.6889375,81.4581875 45.0733125,81.5369375 45.4820625,81.5369375 C45.7520625,81.5369375 46.0164375,81.5013125 46.2751875,81.4281875 C46.5358125,81.3513125 46.7795625,81.2500625 47.0026875,81.1169375 C47.2258125,80.9875625 47.4264375,80.8319375 47.6008125,80.6481875 C47.7751875,80.4644375 47.9139375,80.2581875 48.0133125,80.0388125 L48.6714375,80.2206875 C48.5608125,80.4981875 48.3976875,80.7569375 48.1839375,80.9894375 C47.9683125,81.2256875 47.7208125,81.4281875 47.4376875,81.5969375 C47.1526875,81.7656875 46.8395625,81.8988125 46.5001875,81.9925625 C46.1608125,82.0881875 45.8120625,82.1350625 45.4520625,82.1350625 L45.4520625,82.1350625 Z" id="Fill-9" fill="#653B2B" fill-rule="nonzero" mask="url(#mask-8)"></path>
            </g>
            <g id="Fill-10-Clipped">
                <mask id="mask-10" fill="white">
                    <use xlink:href="#path-9"></use>
                </mask>
                <g id="path-3"></g>
                <path d="M55.061625,81.9858125 L55.061625,74.8176875 L53.9685,74.8176875 L53.9685,74.2026875 L55.061625,74.2026875 L55.061625,73.9495625 C55.061625,72.9914375 55.256625,72.2451875 55.646625,71.7126875 C56.036625,71.1745625 56.572875,70.9101875 57.262875,70.9101875 C57.561,70.9101875 57.851625,70.9533125 58.131,71.0433125 C58.410375,71.1351875 58.641,71.2514375 58.819125,71.4014375 L58.549125,71.9433125 C58.410375,71.8326875 58.237875,71.7445625 58.031625,71.6733125 C57.829125,71.6039375 57.61725,71.5683125 57.397875,71.5683125 C56.887875,71.5683125 56.496,71.7708125 56.22225,72.1758125 C55.9485,72.5789375 55.80975,73.1639375 55.80975,73.9326875 L55.80975,74.2026875 L58.026,74.2026875 L58.026,74.8176875 L55.80975,74.8176875 L55.80975,81.9858125 L55.061625,81.9858125 Z" id="Fill-10" fill="#653B2B" fill-rule="nonzero" mask="url(#mask-10)"></path>
            </g>
            <g id="Fill-11-Clipped">
                <mask id="mask-12" fill="white">
                    <use xlink:href="#path-11"></use>
                </mask>
                <g id="path-3"></g>
                <path d="M59.2996875,78.1386875 C59.2996875,78.5980625 59.3784375,79.0311875 59.5378125,79.4324375 C59.6990625,79.8374375 59.9165625,80.1918125 60.1884375,80.4899375 C60.4640625,80.7899375 60.7846875,81.0280625 61.1559375,81.2005625 C61.5234375,81.3768125 61.9171875,81.4611875 62.3371875,81.4611875 C62.7571875,81.4611875 63.1509375,81.3768125 63.5203125,81.2005625 C63.8896875,81.0280625 64.2140625,80.7843125 64.4934375,80.4749375 C64.7728125,80.1636875 64.9921875,79.8093125 65.1515625,79.4061875 C65.3128125,79.0011875 65.3915625,78.5643125 65.3915625,78.0955625 C65.3915625,77.6343125 65.3128125,77.2049375 65.1515625,76.7980625 C64.9921875,76.3949375 64.7728125,76.0424375 64.4934375,75.7386875 C64.2140625,75.4330625 63.8915625,75.1893125 63.5278125,75.0111875 C63.1640625,74.8293125 62.7721875,74.7411875 62.3521875,74.7411875 C61.9340625,74.7411875 61.5403125,74.8293125 61.1709375,75.0111875 C60.8015625,75.1893125 60.4790625,75.4368125 60.2053125,75.7443125 C59.9296875,76.0536875 59.7103125,76.4155625 59.5453125,76.8299375 C59.3803125,77.2424375 59.2996875,77.6793125 59.2996875,78.1386875 M62.3521875,82.1380625 C61.8028125,82.1380625 61.2984375,82.0293125 60.8334375,81.8155625 C60.3684375,81.5999375 59.9671875,81.3074375 59.6296875,80.9399375 C59.2884375,80.5705625 59.0259375,80.1411875 58.8346875,79.6518125 C58.6434375,79.1624375 58.5515625,78.6468125 58.5515625,78.1086875 C58.5515625,77.5611875 58.6471875,77.0418125 58.8440625,76.5524375 C59.0371875,76.0630625 59.3034375,75.6355625 59.6428125,75.2661875 C59.9821875,74.8968125 60.3853125,74.6043125 60.8484375,74.3905625 C61.3134375,74.1749375 61.8140625,74.0680625 62.3521875,74.0680625 C62.8921875,74.0680625 63.3909375,74.1749375 63.8503125,74.3905625 C64.3078125,74.6043125 64.7109375,74.8968125 65.0540625,75.2661875 C65.3971875,75.6355625 65.6690625,76.0630625 65.8621875,76.5524375 C66.0571875,77.0418125 66.1546875,77.5611875 66.1546875,78.1086875 C66.1546875,78.6468125 66.0571875,79.1624375 65.8621875,79.6518125 C65.6690625,80.1411875 65.4009375,80.5705625 65.0615625,80.9399375 C64.7240625,81.3074375 64.3228125,81.5999375 63.8578125,81.8155625 C63.3946875,82.0293125 62.8921875,82.1380625 62.3521875,82.1380625" id="Fill-11" fill="#653B2B" fill-rule="nonzero" mask="url(#mask-12)"></path>
            </g>
            <g id="Fill-12-Clipped">
                <mask id="mask-14" fill="white">
                    <use xlink:href="#path-13"></use>
                </mask>
                <g id="path-3"></g>
                <path d="M68.161875,78.1386875 C68.161875,78.5980625 68.240625,79.0311875 68.4,79.4324375 C68.56125,79.8374375 68.77875,80.1918125 69.050625,80.4899375 C69.32625,80.7899375 69.646875,81.0280625 70.018125,81.2005625 C70.385625,81.3768125 70.779375,81.4611875 71.199375,81.4611875 C71.619375,81.4611875 72.013125,81.3768125 72.3825,81.2005625 C72.75,81.0280625 73.07625,80.7843125 73.355625,80.4749375 C73.635,80.1636875 73.854375,79.8093125 74.01375,79.4061875 C74.175,79.0011875 74.25375,78.5643125 74.25375,78.0955625 C74.25375,77.6343125 74.175,77.2049375 74.01375,76.7980625 C73.854375,76.3949375 73.635,76.0424375 73.355625,75.7386875 C73.07625,75.4330625 72.75375,75.1893125 72.39,75.0111875 C72.02625,74.8293125 71.634375,74.7411875 71.214375,74.7411875 C70.79625,74.7411875 70.400625,74.8293125 70.03125,75.0111875 C69.66375,75.1893125 69.34125,75.4368125 69.065625,75.7443125 C68.791875,76.0536875 68.5725,76.4155625 68.4075,76.8299375 C68.2425,77.2424375 68.161875,77.6793125 68.161875,78.1386875 M71.214375,82.1380625 C70.665,82.1380625 70.160625,82.0293125 69.695625,81.8155625 C69.230625,81.5999375 68.829375,81.3074375 68.49,80.9399375 C68.150625,80.5705625 67.888125,80.1411875 67.696875,79.6518125 C67.505625,79.1624375 67.41375,78.6468125 67.41375,78.1086875 C67.41375,77.5611875 67.509375,77.0418125 67.704375,76.5524375 C67.899375,76.0630625 68.165625,75.6355625 68.505,75.2661875 C68.844375,74.8968125 69.2475,74.6043125 69.70875,74.3905625 C70.17375,74.1749375 70.67625,74.0680625 71.214375,74.0680625 C71.754375,74.0680625 72.253125,74.1749375 72.7125,74.3905625 C73.17,74.6043125 73.573125,74.8968125 73.91625,75.2661875 C74.259375,75.6355625 74.53125,76.0630625 74.724375,76.5524375 C74.919375,77.0418125 75.016875,77.5611875 75.016875,78.1086875 C75.016875,78.6468125 74.919375,79.1624375 74.724375,79.6518125 C74.53125,80.1411875 74.263125,80.5705625 73.92375,80.9399375 C73.58625,81.3074375 73.185,81.5999375 72.72,81.8155625 C72.256875,82.0293125 71.754375,82.1380625 71.214375,82.1380625" id="Fill-12" fill="#653B2B" fill-rule="nonzero" mask="url(#mask-14)"></path>
            </g>
            <g id="Fill-13-Clipped">
                <mask id="mask-16" fill="white">
                    <use xlink:href="#path-15"></use>
                </mask>
                <g id="path-3"></g>
                <path d="M80.149875,81.462125 C80.419875,81.462125 80.708625,81.409625 81.018,81.299 C81.3255,81.188375 81.616125,81.034625 81.87675,80.8415 C82.143,80.6465 82.37175,80.42525 82.55925,80.175875 C82.748625,79.9265 82.861125,79.6565 82.887375,79.36775 L82.887375,76.8065 C82.778625,76.527125 82.623,76.26275 82.418625,76.005875 C82.212375,75.75275 81.98175,75.533375 81.723,75.34775 C81.462375,75.164 81.183,75.015875 80.884875,74.90525 C80.584875,74.7965 80.29425,74.742125 80.014875,74.742125 C79.564875,74.742125 79.156125,74.839625 78.788625,75.034625 C78.41925,75.22775 78.10425,75.48275 77.8455,75.79775 C77.584875,76.110875 77.38425,76.470875 77.2455,76.87775 C77.104875,77.280875 77.037375,77.69525 77.037375,78.124625 C77.037375,78.57275 77.116125,79.00025 77.2755,79.395875 C77.434875,79.79525 77.656125,80.149625 77.941125,80.460875 C78.228,80.768375 78.556125,81.014 78.92925,81.194 C79.30425,81.372125 79.70925,81.462125 80.149875,81.462125 M80.014875,82.13525 C79.47675,82.13525 78.978,82.024625 78.51675,81.799625 C78.05925,81.5765 77.66175,81.2765 77.328,80.9015 C76.99425,80.5265 76.7355,80.099 76.55175,79.613375 C76.366125,79.1315 76.272375,78.629 76.272375,78.1115 C76.272375,77.5715 76.36425,77.05775 76.542375,76.568375 C76.7205,76.079 76.97175,75.64775 77.2905,75.28025 C77.611125,74.910875 77.986125,74.618375 78.421125,74.39525 C78.856125,74.17775 79.3305,74.070875 79.849875,74.070875 C80.18925,74.070875 80.509875,74.11775 80.809875,74.219 C81.108,74.3165 81.38925,74.4515 81.646125,74.614625 C81.90675,74.779625 82.141125,74.970875 82.351125,75.188375 C82.55925,75.40775 82.73925,75.642125 82.887375,75.893375 L82.887375,71.059625 L83.637375,71.059625 L83.637375,80.939 C83.637375,81.188375 83.742375,81.312125 83.952375,81.312125 L83.952375,81.987125 C83.892375,81.9965 83.843625,82.004 83.802375,82.009625 C83.761125,82.013375 83.72175,82.01525 83.682375,82.01525 C83.483625,82.01525 83.313,81.94025 83.17425,81.784625 C83.0355,81.630875 82.96425,81.46775 82.96425,81.299 L82.96425,80.429 C82.6455,80.95025 82.218,81.360875 81.683625,81.67025 C81.151125,81.9815 80.59425,82.13525 80.014875,82.13525" id="Fill-13" fill="#653B2B" fill-rule="nonzero" mask="url(#mask-16)"></path>
            </g>
            <g id="Fill-14-Clipped">
                <mask id="mask-18" fill="white">
                    <use xlink:href="#path-17"></use>
                </mask>
                <g id="path-3"></g>
                <path d="M88.487625,82.1358125 C87.8895,82.1358125 87.31575,82.0345625 86.766375,81.8376875 C86.218875,81.6370625 85.738875,81.3370625 85.330125,80.9376875 L85.70325,80.4295625 C86.12325,80.8083125 86.55825,81.0876875 87.006375,81.2676875 C87.456375,81.4476875 87.947625,81.5376875 88.487625,81.5376875 C89.16825,81.5376875 89.712,81.3933125 90.12825,81.1101875 C90.54075,80.8270625 90.747,80.4295625 90.747,79.9195625 C90.747,79.6795625 90.696375,79.4789375 90.591375,79.3120625 C90.486375,79.1508125 90.328875,79.0101875 90.12075,78.8958125 C89.91075,78.7814375 89.650125,78.6764375 89.34075,78.5864375 C89.031375,78.5001875 88.671375,78.4045625 88.2645,78.3033125 C87.823875,78.2058125 87.441375,78.1064375 87.12075,78.0051875 C86.7945,77.9058125 86.52825,77.7858125 86.31825,77.6451875 C86.106375,77.5064375 85.948875,77.3339375 85.84575,77.1370625 C85.74075,76.9383125 85.690125,76.6833125 85.690125,76.3739375 C85.690125,75.9858125 85.76325,75.6426875 85.91325,75.3539375 C86.06325,75.0651875 86.2695,74.8289375 86.533875,74.6358125 C86.79825,74.4464375 87.103875,74.3039375 87.447,74.2083125 C87.792,74.1145625 88.157625,74.0676875 88.547625,74.0676875 C89.157,74.0676875 89.697,74.1708125 90.163875,74.3751875 C90.6345,74.5795625 90.996375,74.8401875 91.257,75.1608125 L90.838875,75.5658125 C90.57825,75.2658125 90.242625,75.0408125 89.82825,74.8908125 C89.412,74.7426875 88.9695,74.6676875 88.502625,74.6676875 C88.213875,74.6676875 87.940125,74.6958125 87.687,74.7558125 C87.432,74.8176875 87.208875,74.9095625 87.021375,75.0408125 C86.832,75.1701875 86.682,75.3389375 86.571375,75.5414375 C86.462625,75.7476875 86.406375,75.9914375 86.406375,76.2689375 C86.406375,76.4995625 86.44575,76.6833125 86.518875,76.8220625 C86.593875,76.9626875 86.713875,77.0826875 86.878875,77.1820625 C87.043875,77.2814375 87.257625,77.3695625 87.512625,77.4426875 C87.775125,77.5176875 88.0845,77.6020625 88.4445,77.6920625 C88.932,77.8101875 89.367,77.9245625 89.743875,78.0333125 C90.126375,78.1439375 90.441375,78.2789375 90.696375,78.4364375 C90.9495,78.5976875 91.1445,78.7889375 91.2795,79.0083125 C91.4145,79.2276875 91.482,79.5070625 91.482,79.8445625 C91.482,80.5458125 91.210125,81.1008125 90.666375,81.5151875 C90.122625,81.9314375 89.397,82.1358125 88.487625,82.1358125" id="Fill-14" fill="#653B2B" fill-rule="nonzero" mask="url(#mask-18)"></path>
            </g>
            <g id="Fill-15-Clipped">
                <mask id="mask-20" fill="white">
                    <use xlink:href="#path-19"></use>
                </mask>
                <g id="path-3"></g>
                <path d="M98.15925,73.4841875 C98.15925,73.6135625 98.176125,73.7429375 98.21175,73.8723125 C98.247375,74.0035625 98.31675,74.1516875 98.42175,74.3241875 C98.52675,74.4910625 98.671125,74.6916875 98.85675,74.9148125 C99.038625,75.1379375 99.27675,75.4041875 99.5655,75.7135625 C100.2255,75.2860625 100.75425,74.8885625 101.153625,74.5248125 C101.553,74.1591875 101.75175,73.7485625 101.75175,73.2891875 C101.75175,72.8691875 101.5905,72.5241875 101.273625,72.2504375 C100.953,71.9766875 100.542375,71.8379375 100.0455,71.8379375 C99.7755,71.8379375 99.526125,71.8829375 99.2955,71.9729375 C99.06675,72.0610625 98.866125,72.1829375 98.69925,72.3329375 C98.528625,72.4829375 98.3955,72.6573125 98.30175,72.8579375 C98.206125,73.0548125 98.15925,73.2666875 98.15925,73.4841875 L98.15925,73.4841875 Z M100.0605,81.5204375 C100.62675,81.5204375 101.142375,81.3948125 101.60175,81.1416875 C102.061125,80.8848125 102.458625,80.5473125 102.80175,80.1160625 L99.4155,76.5685625 C99.12675,76.7673125 98.8605,76.9660625 98.61675,77.1666875 C98.371125,77.3654375 98.153625,77.5791875 97.96425,77.8023125 C97.774875,78.0273125 97.62675,78.2673125 97.523625,78.5223125 C97.41675,78.7754375 97.366125,79.0529375 97.366125,79.3529375 C97.366125,79.7110625 97.444875,80.0260625 97.606125,80.2941875 C97.7655,80.5641875 97.973625,80.7891875 98.22675,80.9748125 C98.48175,81.1604375 98.772375,81.2973125 99.094875,81.3873125 C99.41925,81.4773125 99.739875,81.5204375 100.0605,81.5204375 L100.0605,81.5204375 Z M104.596125,81.9854375 L103.234875,80.5641875 C102.82425,81.0441875 102.34425,81.4248125 101.794875,81.7098125 C101.247375,81.9929375 100.638,82.1354375 99.968625,82.1354375 C99.529875,82.1354375 99.109875,82.0698125 98.70675,81.9423125 C98.30175,81.8110625 97.943625,81.6254375 97.636125,81.3798125 C97.32675,81.1360625 97.083,80.8416875 96.901125,80.4966875 C96.723,80.1535625 96.633,79.7616875 96.633,79.3210625 C96.633,78.9629375 96.694875,78.6310625 96.818625,78.3273125 C96.946125,78.0216875 97.113,77.7423125 97.328625,77.4873125 C97.542375,77.2341875 97.79175,76.9923125 98.07675,76.7616875 C98.36175,76.5329375 98.663625,76.3135625 98.982375,76.1016875 C98.704875,75.8035625 98.46675,75.5316875 98.27175,75.2879375 C98.07675,75.0441875 97.91925,74.8229375 97.79925,74.6204375 C97.681125,74.4235625 97.593,74.2304375 97.53675,74.0466875 C97.482375,73.8610625 97.456125,73.6791875 97.456125,73.5010625 C97.456125,73.1898125 97.523625,72.8991875 97.658625,72.6254375 C97.79175,72.3498125 97.9755,72.1079375 98.202375,71.8979375 C98.433,71.6879375 98.708625,71.5229375 99.027375,71.4029375 C99.348,71.2848125 99.691125,71.2248125 100.0605,71.2248125 C100.398,71.2248125 100.714875,71.2754375 101.003625,71.3823125 C101.2905,71.4854375 101.5455,71.6279375 101.75925,71.8060625 C101.973,71.9860625 102.143625,72.2016875 102.259875,72.4510625 C102.379875,72.7023125 102.44175,72.9704375 102.44175,73.2610625 C102.44175,73.5591875 102.376125,73.8404375 102.244875,74.1048125 C102.1155,74.3710625 101.937375,74.6185625 101.716125,74.8529375 C101.491125,75.0873125 101.2305,75.3141875 100.936125,75.5279375 C100.64175,75.7416875 100.33425,75.9573125 100.017375,76.1785625 L103.218,79.5010625 C103.437375,79.1129375 103.609875,78.6854375 103.728,78.2204375 C103.848,77.7573125 103.908,77.2754375 103.908,76.7766875 L104.566125,76.7766875 C104.5455,77.9748125 104.247375,79.0416875 103.668,79.9810625 L105.59925,81.9854375 L104.596125,81.9854375 Z" id="Fill-15" fill="#653B2B" fill-rule="nonzero" mask="url(#mask-20)"></path>
            </g>
            <g id="Fill-16-Clipped">
                <mask id="mask-22" fill="white">
                    <use xlink:href="#path-21"></use>
                </mask>
                <g id="path-3"></g>
                <path d="M114.205687,81.462125 C114.665062,81.462125 115.083188,81.3665 115.463812,81.179 C115.844437,80.98775 116.170687,80.7365 116.444438,80.4215 C116.720062,80.1065 116.931938,79.75025 117.087562,79.35275 C117.241312,78.9515 117.320063,78.54275 117.320063,78.124625 C117.320063,77.684 117.246938,77.264 117.102563,76.860875 C116.956312,76.455875 116.751937,76.09775 116.489438,75.780875 C116.223187,75.46775 115.910062,75.2165 115.546312,75.027125 C115.182563,74.835875 114.779438,74.742125 114.340688,74.742125 C114.012563,74.742125 113.701313,74.80025 113.414438,74.91275 C113.121937,75.029 112.855688,75.180875 112.611937,75.37025 C112.368188,75.559625 112.146938,75.779 111.953812,76.03025 C111.758813,76.279625 111.595687,76.538375 111.466313,76.8065 L111.466313,79.38275 C111.498188,79.6715 111.605063,79.943375 111.796312,80.1965 C111.985687,80.453375 112.212562,80.67275 112.478813,80.8565 C112.741313,81.04025 113.028188,81.188375 113.337562,81.299 C113.648813,81.409625 113.935688,81.462125 114.205687,81.462125 M114.355687,82.13525 C113.746313,82.13525 113.178187,81.975875 112.649438,81.657125 C112.118813,81.34025 111.706313,80.929625 111.406312,80.429 L111.406312,81.987125 L110.720062,81.987125 L110.720062,71.059625 L111.466313,71.059625 L111.466313,75.893375 C111.835687,75.35525 112.272563,74.9165 112.775063,74.577125 C113.281312,74.235875 113.862562,74.070875 114.520687,74.070875 C115.068187,74.070875 115.566937,74.18525 116.009438,74.419625 C116.451937,74.655875 116.826937,74.963375 117.134437,75.34775 C117.438187,75.73025 117.672562,76.167125 117.837562,76.650875 C117.998812,77.134625 118.081312,77.624 118.081312,78.124625 C118.081312,78.664625 117.987562,79.174625 117.798187,79.66025 C117.608812,80.144 117.346312,80.565875 117.012563,80.9315 C116.676937,81.29525 116.283187,81.585875 115.829437,81.809 C115.375687,82.0265 114.884438,82.13525 114.355687,82.13525" id="Fill-16" fill="#653B2B" fill-rule="nonzero" mask="url(#mask-22)"></path>
            </g>
            <g id="Fill-17-Clipped">
                <mask id="mask-24" fill="white">
                    <use xlink:href="#path-23"></use>
                </mask>
                <g id="path-3"></g>
                <path d="M121.9455,81.537125 C122.524875,81.537125 123.057375,81.428375 123.53925,81.207125 C124.023,80.98775 124.396125,80.699 124.653,80.339 C124.812375,80.130875 124.894875,79.932125 124.894875,79.739 L124.894875,78.364625 C124.534875,78.222125 124.16175,78.120875 123.77175,78.0515 C123.38175,77.98025 122.978625,77.944625 122.558625,77.944625 C122.1705,77.944625 121.816125,77.985875 121.4955,78.072125 C121.174875,78.1565 120.901125,78.27275 120.6705,78.42275 C120.44175,78.57275 120.2655,78.7565 120.14175,78.97025 C120.018,79.184 119.95425,79.422125 119.95425,79.68275 C119.95425,79.9415 120.003,80.18525 120.10425,80.414 C120.20175,80.644625 120.34425,80.839625 120.522375,81.0065 C120.70425,81.1715 120.91425,81.299 121.159875,81.394625 C121.40175,81.49025 121.668,81.537125 121.9455,81.537125 M121.7955,82.13525 C121.437375,82.13525 121.10175,82.07525 120.79425,81.94775 C120.483,81.824 120.211125,81.653375 119.974875,81.43775 C119.7405,81.225875 119.5605,80.97275 119.42925,80.6765 C119.299875,80.382125 119.236125,80.06525 119.236125,79.72775 C119.236125,79.3865 119.31675,79.079 119.476125,78.79775 C119.6355,78.52025 119.85675,78.2765 120.14175,78.072125 C120.42675,77.86775 120.766125,77.7065 121.167375,77.592125 C121.564875,77.47775 122.003625,77.4215 122.483625,77.4215 C122.903625,77.4215 123.323625,77.459 123.747375,77.534 C124.171125,77.609 124.553625,77.71025 124.894875,77.839625 L124.894875,77.0765 C124.894875,76.339625 124.684875,75.75275 124.263,75.31775 C123.844875,74.884625 123.278625,74.667125 122.558625,74.667125 C122.179875,74.667125 121.77675,74.74775 121.353,74.90525 C120.931125,75.0665 120.499875,75.29525 120.05925,75.593375 L119.776125,75.08525 C120.77175,74.4065 121.7205,74.069 122.618625,74.069 C123.556125,74.069 124.29675,74.340875 124.834875,74.884625 C125.371125,75.4265 125.643,76.18025 125.643,77.1365 L125.643,80.939 C125.643,81.188375 125.75175,81.312125 125.96925,81.312125 L125.96925,81.987125 C125.9205,81.9965 125.869875,82.004 125.813625,82.009625 C125.75925,82.01525 125.712375,82.01525 125.671125,82.01525 C125.472375,82.01525 125.313,81.94775 125.193,81.81275 C125.073,81.679625 125.003625,81.5165 124.984875,81.329 L124.984875,80.685875 C124.623,81.154625 124.1655,81.510875 123.60675,81.76025 C123.048,82.0115 122.44425,82.13525 121.7955,82.13525" id="Fill-17" fill="#653B2B" fill-rule="nonzero" mask="url(#mask-24)"></path>
            </g>
            <g id="Fill-18-Clipped">
                <mask id="mask-26" fill="white">
                    <use xlink:href="#path-25"></use>
                </mask>
                <g id="path-3"></g>
                <polygon id="Fill-18" fill="#653B2B" fill-rule="nonzero" mask="url(#mask-26)" points="133.547063 81.9858125 130.507688 77.8251875 128.666438 79.5183125 128.666438 81.9858125 127.918312 81.9858125 127.918312 71.0601875 128.666438 71.0601875 128.666438 78.6933125 133.397063 74.2176875 134.263313 74.2176875 131.015813 77.3770625 134.368313 81.9858125"></polygon>
            </g>
            <g id="Fill-19-Clipped">
                <mask id="mask-28" fill="white">
                    <use xlink:href="#path-27"></use>
                </mask>
                <g id="path-3"></g>
                <path d="M141.687938,77.7963125 C141.657938,77.3350625 141.556688,76.9169375 141.382313,76.5381875 C141.206063,76.1575625 140.982937,75.8313125 140.707313,75.5575625 C140.431688,75.2819375 140.114812,75.0681875 139.756687,74.9125625 C139.396688,74.7569375 139.012312,74.6800625 138.603563,74.6800625 C138.196688,74.6800625 137.812312,74.7569375 137.452313,74.9125625 C137.094188,75.0681875 136.777313,75.2819375 136.499813,75.5575625 C136.226063,75.8313125 136.006687,76.1613125 135.843562,76.5456875 C135.676688,76.9300625 135.581063,77.3463125 135.551063,77.7963125 L141.687938,77.7963125 Z M138.633562,82.1350625 C138.084188,82.1350625 137.576063,82.0300625 137.107313,81.8144375 C136.640437,81.5988125 136.231688,81.3044375 135.886688,80.9294375 C135.543563,80.5581875 135.271688,80.1250625 135.078563,79.6356875 C134.885438,79.1481875 134.787937,78.6250625 134.787937,78.0663125 C134.787937,77.5169375 134.885438,76.9994375 135.078563,76.5138125 C135.271688,76.0319375 135.541687,75.6081875 135.879188,75.2444375 C136.220438,74.8788125 136.621688,74.5919375 137.086688,74.3838125 C137.547938,74.1719375 138.052313,74.0688125 138.588562,74.0688125 C139.137937,74.0688125 139.646062,74.1738125 140.114812,74.3894375 C140.585438,74.6050625 140.990438,74.8938125 141.329813,75.2594375 C141.665437,75.6231875 141.933562,76.0450625 142.121062,76.5288125 C142.310437,77.0144375 142.406062,77.5244375 142.406062,78.0663125 L142.406062,78.2519375 C142.406062,78.3269375 142.400437,78.3738125 142.391063,78.3944375 L135.564188,78.3944375 C135.596063,78.8444375 135.702937,79.2606875 135.879188,79.6431875 C136.059188,80.0275625 136.286063,80.3594375 136.561688,80.6406875 C136.835438,80.9181875 137.152313,81.1375625 137.512313,81.2969375 C137.872313,81.4581875 138.254812,81.5369375 138.665438,81.5369375 C138.935438,81.5369375 139.197937,81.5013125 139.456688,81.4281875 C139.717312,81.3513125 139.959188,81.2500625 140.184187,81.1169375 C140.407312,80.9875625 140.607938,80.8319375 140.784188,80.6481875 C140.956687,80.4644375 141.095438,80.2581875 141.194812,80.0388125 L141.852937,80.2206875 C141.742312,80.4981875 141.579187,80.7569375 141.365438,80.9894375 C141.151688,81.2256875 140.902312,81.4281875 140.619188,81.5969375 C140.330437,81.7656875 140.021062,81.8988125 139.681688,81.9925625 C139.342312,82.0881875 138.993562,82.1350625 138.633562,82.1350625 L138.633562,82.1350625 Z" id="Fill-19" fill="#653B2B" fill-rule="nonzero" mask="url(#mask-28)"></path>
            </g>
            <g id="Fill-20-Clipped">
                <mask id="mask-30" fill="white">
                    <use xlink:href="#path-29"></use>
                </mask>
                <g id="path-3"></g>
                <path d="M147.734062,74.8775 C147.036563,74.89625 146.425312,75.104375 145.900313,75.498125 C145.375313,75.891875 145.009687,76.43375 144.801562,77.12 L144.801562,81.985625 L144.051562,81.985625 L144.051562,74.2025 L144.771562,74.2025 L144.771562,76.11875 C145.039687,75.57125 145.397812,75.123125 145.840312,74.778125 C146.286562,74.435 146.759062,74.238125 147.269062,74.1875 C147.370312,74.18 147.460312,74.174375 147.539062,74.174375 L147.734062,74.174375 L147.734062,74.8775 Z" id="Fill-20" fill="#653B2B" fill-rule="nonzero" mask="url(#mask-30)"></path>
            </g>
            <g id="Fill-21-Clipped">
                <mask id="mask-32" fill="white">
                    <use xlink:href="#path-31"></use>
                </mask>
                <g id="path-3"></g>
                <path d="M149.6805,84.6205625 C149.72925,84.6318125 149.80425,84.6374375 149.9055,84.6374375 C150.004875,84.6374375 150.09675,84.6318125 150.183,84.6205625 C150.2655,84.6111875 150.348,84.5849375 150.428625,84.5455625 C150.4905,84.5155625 150.543,84.4743125 150.593625,84.4199375 C150.64425,84.3636875 150.713625,84.2511875 150.803625,84.0824375 C150.89175,83.9136875 151.008,83.6624375 151.148625,83.3324375 C151.287375,83.0043125 151.47675,82.5543125 151.714875,81.9880625 L148.24425,74.2030625 L149.022375,74.2030625 L152.12175,81.2530625 L155.00925,74.2030625 L155.742375,74.2030625 L151.47675,84.4386875 C151.366125,84.7218125 151.189875,84.9374375 150.946125,85.0930625 C150.7005,85.2468125 150.3705,85.3236875 149.9505,85.3236875 L149.821125,85.3236875 C149.778,85.3236875 149.72925,85.3180625 149.6805,85.3086875 L149.6805,84.6205625 Z" id="Fill-21" fill="#653B2B" fill-rule="nonzero" mask="url(#mask-32)"></path>
            </g>
        </g>
    </g>
</svg>