<svg width="115" height="72" viewBox="0 0 115 72" fill="none" xmlns="http://www.w3.org/2000/svg">
<path fill-rule="evenodd" clip-rule="evenodd" d="M35.4551 69.023C-4.91076 58.8219 -10.5343 26.7152 17.1413 11.5645C7.46526 21.4638 29.4375 31.342 40.7697 36.0428C71.5447 48.8061 57.9864 61.58 35.4444 69.023" fill="#1C2472"/>
<path fill-rule="evenodd" clip-rule="evenodd" d="M113.205 45.9838C119.846 28.1386 107.14 14.4594 90.0989 7.37109C84.3114 11.0748 79.5086 16.1124 76.0986 22.056C70.8905 30.8913 72.4774 37.5879 85.5777 41.1136C94.8384 43.6175 103.071 45.6609 113.205 45.9627" fill="#1C2472"/>
<path fill-rule="evenodd" clip-rule="evenodd" d="M83.3149 4.83047C73.6548 2.07772 64.1864 0.420765 53.1949 0.981904C46.517 3.52821 39.7113 7.72616 35.2007 12.5276C26.185 21.1829 30.2375 29.2083 49.3181 38.1177C58.2753 42.305 66.8916 47.2865 74.0648 52.9032C83.5439 60.3144 75.2044 67.1275 51.5707 71.786C76.4985 72.6542 99.3334 66.4923 112.178 48.0594C97.2033 47.44 83.7516 45.8413 71.0667 41.5957C55.6233 36.4396 54.6488 27.3925 62.4397 18.7372C67.9088 12.6705 75.0127 8.42494 83.3149 4.82518" fill="#ED1C24"/>
</svg>
